<svg width="239" height="201" viewBox="0 0 239 201" fill="none" xmlns="http://www.w3.org/2000/svg">
<path d="M163.936 47.7473L143.6 167.741L48.0858 85.0402L163.936 47.7473Z" fill="url(#paint0_linear)"/>
<path d="M31.5552 79.1416H18.9868V114H13.8574V79.1416H1.31592V74.8984H31.5552V79.1416ZM45.9497 114.537C42.0109 114.537 38.8062 113.248 36.3354 110.67C33.8647 108.074 32.6294 104.61 32.6294 100.277V99.3638C32.6294 96.4813 33.1755 93.9121 34.2676 91.6562C35.3776 89.3825 36.9173 87.61 38.8867 86.3389C40.874 85.0498 43.0225 84.4053 45.332 84.4053C49.1097 84.4053 52.0459 85.6496 54.1406 88.1382C56.2354 90.6268 57.2827 94.1896 57.2827 98.8267V100.895H37.5977C37.6693 103.759 38.5018 106.078 40.0952 107.85C41.7065 109.605 43.7476 110.482 46.2183 110.482C47.9728 110.482 49.4588 110.124 50.6763 109.408C51.8937 108.692 52.959 107.743 53.8721 106.561L56.9067 108.924C54.4718 112.666 50.8195 114.537 45.9497 114.537ZM45.332 88.4873C43.3268 88.4873 41.6439 89.2214 40.2832 90.6895C38.9225 92.1396 38.0811 94.1807 37.7588 96.8125H52.3145V96.4365C52.1712 93.9121 51.4909 91.9606 50.2734 90.582C49.056 89.1855 47.4089 88.4873 45.332 88.4873ZM74.7119 110.482C76.4844 110.482 78.033 109.945 79.3579 108.871C80.6828 107.796 81.4168 106.454 81.5601 104.842H86.2598C86.1702 106.507 85.5973 108.092 84.541 109.596C83.4847 111.1 82.0703 112.299 80.2979 113.194C78.5433 114.09 76.6813 114.537 74.7119 114.537C70.7552 114.537 67.6042 113.221 65.2588 110.589C62.9313 107.94 61.7676 104.323 61.7676 99.7397V98.9072C61.7676 96.0785 62.2868 93.563 63.3252 91.3608C64.3636 89.1587 65.8496 87.4489 67.7832 86.2314C69.7347 85.014 72.0353 84.4053 74.6851 84.4053C77.9435 84.4053 80.647 85.381 82.7954 87.3325C84.9618 89.284 86.1165 91.8174 86.2598 94.9326H81.5601C81.4168 93.0527 80.7007 91.513 79.4116 90.3135C78.1405 89.096 76.5649 88.4873 74.6851 88.4873C72.1606 88.4873 70.2002 89.4004 68.8037 91.2266C67.4251 93.0348 66.7358 95.6577 66.7358 99.0952V100.035C66.7358 103.383 67.4251 105.961 68.8037 107.77C70.1823 109.578 72.1517 110.482 74.7119 110.482ZM96.814 88.4604C99.0161 85.757 101.881 84.4053 105.408 84.4053C111.549 84.4053 114.646 87.8696 114.7 94.7983V114H109.731V94.7715C109.714 92.6768 109.23 91.1281 108.281 90.1255C107.35 89.1229 105.891 88.6216 103.904 88.6216C102.292 88.6216 100.878 89.0513 99.6606 89.9106C98.4432 90.77 97.4943 91.8979 96.814 93.2944V114H91.8457V72.75H96.814V88.4604Z" fill="black"/>
<path d="M173.37 124H161.4L156.36 114.27L152.93 106.57H152.3L148.8 114.27L143.62 124H132.63L146.35 98.73L133.54 75.14H145.51L149.5 82.91L153.07 90.75H153.63L157.27 82.91L161.47 75.14H172.46L159.65 98.87L173.37 124ZM179.293 124V75.14H198.193C200.573 75.14 202.696 75.5133 204.563 76.26C206.429 76.96 207.993 77.9867 209.253 79.34C210.559 80.6933 211.539 82.3267 212.193 84.24C212.846 86.1533 213.173 88.3 213.173 90.68C213.173 93.06 212.846 95.2067 212.193 97.12C211.539 99.0333 210.559 100.667 209.253 102.02C207.993 103.373 206.429 104.423 204.563 105.17C202.696 105.87 200.573 106.22 198.193 106.22H189.863V124H179.293ZM189.863 97.75H195.533C198.006 97.75 199.709 97.2833 200.643 96.35C201.623 95.4167 202.113 93.8767 202.113 91.73V89.63C202.113 87.4833 201.623 85.9433 200.643 85.01C199.709 84.0767 198.006 83.61 195.533 83.61H189.863V97.75Z" fill="black"/>
<defs>
<linearGradient id="paint0_linear" x1="163.936" y1="47.7473" x2="73.1452" y2="152.605" gradientUnits="userSpaceOnUse">
<stop stop-color="#745EBE"/>
<stop offset="0.947917" stop-color="#298E95" stop-opacity="0"/>
</linearGradient>
</defs>
</svg>
